# xmcd
#
# Track frame offsets:
#	150
#	14042
#	25765
#	37550
#	49367
#	68137
#	77850
#	91670
#	103757
#	120400
#
# Disc length: 1791 seconds
#
# Revision: 7
# Processed by: cddbd v1.5.2PL0 Copyright (c) Steve Scherf et al.
# Submitted via: EZCDAudioConverter 6.0.5.1
#
DISCID=7306fd0a
DTITLE=Johnny Cash - Giant Hits
DYEAR=2005
DGENRE=Country
TTITLE0=Don't Take Your Guns To Town
TTITLE1=I Walk The Line
TTITLE2=I Still Miss Someone
TTITLE3=Ring Of Fire
TTITLE4=Sunday Morning Coming Down
TTITLE5=What Do I Care
TTITLE6=It Ain't Me, Babe
TTITLE7=I'm So Lonesome I Could Cry
TTITLE8=The City Of New Orleans
TTITLE9=Orange Blossom Special
EXTD=
EXTT0=
EXTT1=
EXTT2=
EXTT3=
EXTT4=
EXTT5=
EXTT6=
EXTT7=
EXTT8=
EXTT9=
PLAYORDER=
